<svg width="42" height="39" viewBox="0 0 42 39" fill="none" xmlns="http://www.w3.org/2000/svg">
<path d="M41.5 19.5C41.5 29.9592 32.3574 38.5 21 38.5C9.64262 38.5 0.5 29.9592 0.5 19.5C0.5 9.04084 9.64262 0.5 21 0.5C32.3574 0.5 41.5 9.04084 41.5 19.5Z" fill="#D5CFCF" fill-opacity="0.2" stroke="black"/>
<path d="M21.0081 30C21.8856 29.993 22.7246 29.6902 23.3432 29.1571L30.515 23.0286C30.8256 22.7609 31 22.3988 31 22.0214C31 21.644 30.8256 21.2819 30.515 21.0143C30.3599 20.8804 30.1755 20.7741 29.9722 20.7016C29.769 20.6291 29.551 20.5917 29.3308 20.5917C29.1106 20.5917 28.8926 20.6291 28.6894 20.7016C28.4861 20.7741 28.3017 20.8804 28.1466 21.0143L22.676 25.7143L22.676 11.4286C22.676 11.0497 22.5003 10.6863 22.1875 10.4184C21.8747 10.1505 21.4505 10 21.0081 10C20.5658 10 20.1416 10.1505 19.8288 10.4184C19.516 10.6863 19.3403 11.0497 19.3403 11.4286L19.3403 25.7143L13.853 21.0143C13.5411 20.7453 13.1173 20.5934 12.6747 20.5921C12.2321 20.5907 11.807 20.74 11.493 21.0071C11.1789 21.2743 11.0016 21.6373 11 22.0164C10.9984 22.3955 11.1728 22.7596 11.4846 23.0286L18.6565 29.1571C19.2792 29.6937 20.1249 29.9968 21.0081 30Z" fill="black" fill-opacity="0.8"/>
</svg>
